<svg version="1.1" id="Layer_1" xmlns="http://www.w3.org/2000/svg" xmlns:xlink="http://www.w3.org/1999/xlink" x="0px" y="0px"
	 width="100%" viewBox="0 0 1000 500" enable-background="new 0 0 1000 500" xml:space="preserve">
<path fill="#000000" opacity="1.000000" stroke="none" 
	d="
M752.000000,501.000000 
	C501.375000,501.000000 251.249985,501.000000 1.062492,501.000000 
	C1.062492,334.402771 1.062492,167.805511 1.062492,1.104126 
	C334.333313,1.104126 667.666626,1.104126 1000.979065,1.104126 
	C1000.979065,167.750092 1000.979065,334.375031 1000.979065,501.000000 
	C918.138733,501.000000 835.319397,501.000000 752.000000,501.000000 
M225.230331,58.985374 
	C225.585922,58.404446 226.388229,57.547142 226.226746,57.286137 
	C224.886856,55.120449 223.368881,53.064938 222.687622,50.960186 
	C225.397034,51.898392 228.106461,52.836594 231.269791,53.931980 
	C225.200287,43.024372 225.200287,43.024372 216.045898,43.987778 
	C208.259811,33.851181 183.241104,27.998898 168.955124,38.578529 
	C155.009399,48.906193 145.187592,61.950932 138.857391,78.032059 
	C127.964951,105.702988 130.441681,132.362518 144.055023,158.356171 
	C145.571381,161.251556 147.424973,163.970306 148.257904,166.887100 
	C147.823883,168.817963 147.458481,170.767303 146.944473,172.676636 
	C144.032578,183.493271 146.856934,193.733627 151.768448,202.965759 
	C160.659775,219.678787 173.910980,232.796417 189.043823,244.080688 
	C191.969940,246.262619 194.902252,248.874573 196.765564,251.936874 
	C199.319214,256.133698 200.552628,261.111237 202.879211,265.472900 
	C211.873352,282.334351 226.380447,294.149353 240.875748,305.832611 
	C244.289673,308.584259 244.630753,309.971039 241.593460,313.023102 
	C233.225952,321.431274 225.085907,330.066711 216.916504,338.669830 
	C216.069595,339.561707 215.457993,340.776459 215.027527,341.948090 
	C212.375137,349.167145 216.289627,354.835144 220.419128,359.669098 
	C227.672302,368.159607 235.698029,375.996307 243.495163,384.014465 
	C254.846008,395.687134 266.220978,407.337616 277.696716,418.887238 
	C289.723267,430.991211 301.927795,442.918274 313.957703,455.018951 
	C318.615936,459.704651 323.008484,464.654510 327.522095,469.484009 
	C327.974091,469.300446 328.426086,469.116882 328.878113,468.933319 
	C328.946808,467.678833 329.322083,466.349701 329.037567,465.181213 
	C325.566040,450.922394 318.380798,438.361176 310.576111,426.179413 
	C304.004883,415.922821 296.478119,406.268402 290.098755,395.901611 
	C283.281372,384.822968 277.191467,373.287445 271.008575,361.830200 
	C265.075562,350.835968 265.486694,347.981323 273.262390,342.708984 
	C276.009247,347.140106 278.404297,351.842987 281.574432,355.947144 
	C288.700928,365.173279 296.303284,374.029968 303.545746,383.168793 
	C315.494141,398.245728 327.289368,413.444031 339.242767,428.516968 
	C339.895111,429.339539 341.405518,429.481659 343.030060,430.152618 
	C340.545258,416.686218 334.971466,405.564209 329.043915,394.602386 
	C322.519287,382.536346 315.843628,370.551971 309.336731,358.476532 
	C308.881256,357.631226 309.277191,356.327179 309.277191,354.503662 
	C313.512177,356.503021 317.065338,358.483917 320.830017,359.904083 
	C335.334015,365.375397 349.673035,371.466858 364.521637,375.787079 
	C377.684082,379.616730 391.406372,381.595062 404.944946,384.039093 
	C418.981689,386.573120 433.033173,389.222595 447.190277,390.841827 
	C464.052124,392.770416 481.014374,394.042786 497.968750,394.868988 
	C510.925690,395.500366 523.938599,395.054108 536.924744,394.912109 
	C538.333435,394.896729 540.091858,394.054352 541.058289,393.011749 
	C543.306396,390.586609 545.169922,387.804962 547.736816,384.792297 
	C556.091553,377.200897 563.804504,368.707184 572.938232,362.211121 
	C590.468994,349.742920 610.064758,346.068542 630.064514,355.506927 
	C639.368530,359.897736 647.328369,367.136963 656.181335,373.690826 
	C658.287048,376.007446 660.633301,378.152222 662.440735,380.681915 
	C665.001343,384.265747 668.181641,384.437927 672.023865,383.536652 
	C678.972168,381.906799 685.974365,380.507019 692.780090,379.680878 
	C685.048767,386.552246 676.021484,390.541504 666.791199,391.282410 
	C658.898682,383.044617 651.920776,374.192780 643.410706,367.207489 
	C626.022156,352.934601 606.769836,350.971436 586.606079,361.724030 
	C575.855896,367.456726 567.151917,375.645874 558.988403,384.499146 
	C555.281494,388.519318 551.447021,392.437469 547.975403,396.653076 
	C545.865051,399.215698 544.337097,402.257874 542.205872,405.624237 
	C570.397949,397.170959 596.688782,401.433960 623.963135,408.175415 
	C602.078796,434.449097 575.355042,447.672668 541.712830,447.205414 
	C542.570068,448.905701 542.880615,450.313538 543.748657,451.124786 
	C557.195496,463.690887 573.069702,470.819580 591.549744,470.879456 
	C602.663025,470.915497 613.159119,467.941132 623.554199,463.452972 
	C638.600647,456.956512 651.010559,447.027771 662.812622,436.249451 
	C671.294006,428.503815 678.673828,420.274292 689.757629,415.112427 
	C709.098511,406.105164 726.512695,393.466278 740.910645,377.399017 
	C746.526062,371.132599 751.039062,363.878326 756.774780,356.980438 
	C764.063721,352.878143 771.352661,348.775848 778.934082,344.508942 
	C777.550171,347.920685 776.289124,350.928894 775.105774,353.967346 
	C772.325073,361.107025 769.807556,368.358582 766.776184,375.389221 
	C760.373352,390.239014 753.573425,404.918518 747.261414,419.805664 
	C745.899597,423.017609 745.910156,426.811462 745.288635,430.337280 
	C745.710510,430.518738 746.132385,430.700195 746.554321,430.881622 
	C747.987793,429.377411 749.681885,428.045563 750.810120,426.339508 
	C756.058350,418.403381 761.005737,410.266327 766.330017,402.383057 
	C775.207458,389.238983 784.392029,376.302002 793.242065,363.139862 
	C797.409485,356.941833 801.100342,350.423370 805.778870,344.030029 
	C810.737000,346.137909 809.402527,350.377289 808.499268,353.803711 
	C806.319824,362.070465 803.892029,370.305969 800.952576,378.329987 
	C796.608154,390.189087 791.746216,401.859009 787.080688,413.599976 
	C782.292786,425.649231 777.068481,437.546509 772.846924,449.790222 
	C770.790833,455.753601 770.583435,462.354431 769.539124,468.666687 
	C770.234070,468.981171 770.929077,469.295654 771.624023,469.610107 
	C773.487244,467.208862 775.516235,464.916901 777.184082,462.386871 
	C783.461853,452.863800 789.393494,443.105347 795.871338,433.722717 
	C811.810486,410.636078 828.044373,387.753174 844.021118,364.692291 
	C849.256775,357.135162 854.535339,349.633759 857.309082,340.573944 
	C858.852600,335.532379 856.812744,331.902313 853.918945,329.187439 
	C849.366699,324.916534 843.837646,321.697021 838.786987,317.945160 
	C826.456604,308.785583 814.195496,299.532532 801.832642,290.417236 
	C798.745483,288.141022 798.212708,286.072327 800.558105,282.750000 
	C806.004944,275.034027 810.919373,266.941406 816.390869,259.244019 
	C821.200867,252.477249 814.615112,243.738251 807.113647,242.905975 
	C798.869141,241.991257 790.688660,240.439575 782.515381,238.970505 
	C779.128967,238.361832 776.754211,233.521286 778.108337,230.498444 
	C782.037292,221.727875 785.643188,212.785660 790.088379,204.283325 
	C792.767273,199.159454 787.737732,190.491547 783.071411,190.257080 
	C773.789856,189.790710 764.418457,189.778732 755.165649,190.553131 
	C749.236633,191.049332 746.354858,188.688400 747.697144,182.621552 
	C749.523621,174.366364 751.484497,166.125839 752.880005,157.793991 
	C754.877136,145.870224 747.830872,140.627060 737.822449,143.859528 
	C730.720764,146.153168 723.342590,147.585175 716.100647,149.451523 
	C710.470276,150.902557 705.990540,146.651291 707.060425,140.907593 
	C707.507751,138.506271 707.795044,136.064072 707.979431,133.627151 
	C708.377319,128.369370 708.481018,123.083885 709.035278,117.844666 
	C709.835083,110.284172 702.349060,101.066994 694.452087,104.979973 
	C686.939514,108.702545 679.212097,111.999519 671.765320,115.844337 
	C666.053528,118.793327 662.263428,117.374161 661.049683,110.792183 
	C659.483154,102.297127 658.162109,93.747849 657.044556,85.181580 
	C656.022156,77.345200 648.170715,72.873810 641.754150,77.161827 
	C634.695862,81.878716 627.882507,87.005096 621.274841,92.340050 
	C615.677063,96.859604 611.422119,95.871239 609.034912,89.088783 
	C605.969360,80.378944 602.997681,71.618179 599.451965,63.101501 
	C597.114502,57.486988 589.919128,55.851826 585.661072,60.020241 
	C578.061768,67.459526 570.959229,75.406288 563.041382,83.783691 
	C560.976013,82.992912 557.026794,82.742653 555.664429,80.736069 
	C550.381042,72.954254 546.001648,64.564720 541.127502,56.497032 
	C537.441711,50.396435 528.555542,50.525352 524.887390,56.448338 
	C519.905518,64.492599 515.017639,72.595139 510.096191,80.676743 
	C508.272186,83.671974 502.494781,84.296585 500.195648,81.672386 
	C494.770905,75.480598 489.419128,69.224831 483.985657,63.040764 
	C476.397339,54.404106 468.452850,57.152985 465.278046,64.702583 
	C462.030121,72.426071 459.706482,80.539253 457.001038,88.489601 
	C454.560547,95.661400 451.230774,96.889259 445.055969,92.542366 
	C437.719666,87.377769 430.653046,81.823326 423.229065,76.792725 
	C419.344818,74.160690 413.396240,75.496407 411.381378,79.443794 
	C409.720001,82.698685 408.720428,86.413628 408.076416,90.039940 
	C406.762268,97.439476 406.083588,104.952469 404.747467,112.347229 
	C404.038177,116.272873 399.351562,118.542824 396.255981,117.052109 
	C387.918915,113.037239 379.651978,108.857376 371.166107,105.184517 
	C369.074005,104.278999 366.063690,104.461189 363.805420,105.179970 
	C358.440094,106.887672 357.038879,111.636047 357.075317,116.570206 
	C357.139984,125.336327 357.638763,134.100311 358.014526,142.862671 
	C358.236145,148.031235 354.908752,150.723648 349.824432,149.390167 
	C342.138580,147.374390 334.479004,145.249313 326.755463,143.389938 
	C322.412598,142.344437 318.320892,142.657211 314.995117,146.434189 
	C311.942841,149.900558 311.795319,153.429092 312.927979,157.747360 
	C315.232880,166.535004 317.110504,175.441956 318.913422,184.350510 
	C319.642303,187.952087 316.287445,191.164230 312.776764,191.010559 
	C303.524353,190.605591 294.268585,190.203888 285.009918,190.039612 
	C277.960266,189.914505 273.152679,197.904327 276.091309,204.352264 
	C280.038483,213.013107 283.889832,221.718140 287.717285,230.432770 
	C289.018341,233.395218 286.468201,238.413498 283.180084,239.000122 
	C275.003448,240.458862 266.817352,241.960327 258.573975,242.920975 
	C250.842148,243.821991 245.780075,251.265442 249.125443,258.144012 
	C251.164719,262.337036 254.010086,266.146790 256.586731,270.067352 
	C259.397461,274.344025 262.316010,278.549805 265.452026,283.176666 
	C255.224213,281.256622 231.760864,261.624237 228.589615,251.959213 
	C233.303604,246.543793 238.094604,241.570862 242.276428,236.129730 
	C252.230133,223.178574 258.462311,208.820114 259.140076,192.131104 
	C259.485504,183.625336 257.367096,175.694672 254.350983,168.240585 
	C251.618790,161.488205 246.628387,155.649551 242.977234,148.646179 
	C250.495697,126.994057 247.644974,105.725769 240.285675,84.500458 
	C239.873230,85.698067 239.460770,86.895683 238.322678,87.739349 
	C237.876572,85.350403 237.430466,82.961456 236.984344,80.572517 
	C237.380539,80.748138 237.776733,80.923767 238.172913,81.099396 
	C239.393738,79.373863 240.614563,77.648331 242.592285,76.165298 
	C243.513794,81.859261 244.562424,82.600174 253.013321,83.529114 
	C252.725113,82.098137 252.436905,80.667160 252.801071,79.022186 
	C255.137955,73.617462 257.692810,68.289444 259.642517,62.748486 
	C260.073853,61.522655 258.420624,58.178535 257.632629,58.146622 
	C254.097366,58.003429 250.527924,58.703690 246.970810,59.099621 
	C247.012054,59.554356 247.053299,60.009087 247.094528,60.463821 
	C247.703873,60.631176 248.394455,60.668522 248.907837,60.989391 
	C250.702301,62.111000 253.811447,63.245167 253.891220,64.531448 
	C254.034897,66.848221 252.349930,69.278404 251.428848,71.661217 
	C249.458237,70.869186 247.527344,69.948517 245.504929,69.324364 
	C243.774429,68.790298 241.939011,68.596161 239.619476,68.570175 
	C236.329163,70.410614 235.552979,65.700562 232.842621,65.253891 
	C231.605682,64.389572 230.446045,62.989143 229.112213,62.796829 
	C227.450653,62.557266 225.645386,63.314335 224.176361,62.832169 
	C224.206665,61.521023 224.236969,60.209877 225.230331,58.985374 
M232.474487,54.493538 
	C232.474487,54.493538 232.512527,54.494850 232.474487,54.493538 
z"/>
<path fill="#F74C00" opacity="1.000000" stroke="none" 
	d="
M756.054260,357.074036 
	C751.039062,363.878326 746.526062,371.132599 740.910645,377.399017 
	C726.512695,393.466278 709.098511,406.105164 689.757629,415.112427 
	C678.673828,420.274292 671.294006,428.503815 662.812622,436.249451 
	C651.010559,447.027771 638.600647,456.956512 623.554199,463.452972 
	C613.159119,467.941132 602.663025,470.915497 591.549744,470.879456 
	C573.069702,470.819580 557.195496,463.690887 543.748657,451.124786 
	C542.880615,450.313538 542.570068,448.905701 541.712830,447.205414 
	C575.355042,447.672668 602.078796,434.449097 623.963135,408.175415 
	C596.688782,401.433960 570.397949,397.170959 542.205872,405.624237 
	C544.337097,402.257874 545.865051,399.215698 547.975403,396.653076 
	C551.447021,392.437469 555.281494,388.519318 558.988403,384.499146 
	C567.151917,375.645874 575.855896,367.456726 586.606079,361.724030 
	C606.769836,350.971436 626.022156,352.934601 643.410706,367.207489 
	C651.920776,374.192780 658.898682,383.044617 666.791199,391.282410 
	C676.021484,390.541504 685.048767,386.552246 693.193237,379.216888 
	C704.568481,373.678558 712.111145,364.637909 720.143311,355.946899 
	C720.191101,355.930450 720.095520,355.965851 719.597290,355.970123 
	C709.838867,358.785095 700.549927,361.879791 691.110474,364.414001 
	C679.438110,367.547638 667.640808,370.215759 655.897461,373.085022 
	C647.328369,367.136963 639.368530,359.897736 630.064514,355.506927 
	C610.064758,346.068542 590.468994,349.742920 572.938232,362.211121 
	C563.804504,368.707184 556.091553,377.200897 546.981995,384.935791 
	C517.637207,385.575439 489.112152,384.398071 460.854919,379.965027 
	C436.981842,376.219788 413.103668,372.250854 389.492065,367.155975 
	C354.869049,359.685150 321.133972,349.071899 288.436218,335.313965 
	C282.767944,332.928986 275.735748,336.108887 272.996735,342.049103 
	C265.486694,347.981323 265.075562,350.835968 271.008575,361.830200 
	C277.191467,373.287445 283.281372,384.822968 290.098755,395.901611 
	C296.478119,406.268402 304.004883,415.922821 310.576111,426.179413 
	C318.380798,438.361176 325.566040,450.922394 329.037567,465.181213 
	C329.322083,466.349701 328.946808,467.678833 328.878113,468.933319 
	C328.426086,469.116882 327.974091,469.300446 327.522095,469.484009 
	C323.008484,464.654510 318.615936,459.704651 313.957703,455.018951 
	C301.927795,442.918274 289.723267,430.991211 277.696716,418.887238 
	C266.220978,407.337616 254.846008,395.687134 243.495163,384.014465 
	C235.698029,375.996307 227.672302,368.159607 220.419128,359.669098 
	C216.289627,354.835144 212.375137,349.167145 215.027527,341.948090 
	C215.457993,340.776459 216.069595,339.561707 216.916504,338.669830 
	C225.085907,330.066711 233.225952,321.431274 241.593460,313.023102 
	C244.630753,309.971039 244.289673,308.584259 240.875748,305.832611 
	C226.380447,294.149353 211.873352,282.334351 202.879211,265.472900 
	C200.552628,261.111237 199.319214,256.133698 196.765564,251.936874 
	C194.902252,248.874573 191.969940,246.262619 189.043823,244.080688 
	C173.910980,232.796417 160.659775,219.678787 151.768448,202.965759 
	C146.856934,193.733627 144.032578,183.493271 146.944473,172.676636 
	C147.458481,170.767303 147.823883,168.817963 148.995972,166.977692 
	C154.111877,170.690384 158.489716,174.312485 163.039261,178.254364 
	C165.487457,179.375519 167.763916,180.176910 170.019409,180.990967 
	C169.998444,181.003647 169.997864,180.954636 170.114151,181.299240 
	C175.903870,183.058517 181.577316,184.473190 187.676239,185.902832 
	C190.381836,185.988297 192.661957,186.058807 195.109711,186.423187 
	C199.169769,192.111374 203.062195,197.505692 207.441711,203.575058 
	C208.009521,195.902817 208.480194,189.543167 209.192566,182.831375 
	C209.336273,170.381485 208.987701,158.278534 209.238800,146.188034 
	C209.378738,139.450165 210.512695,132.732605 211.207962,126.006866 
	C211.333328,124.794174 211.503845,123.586143 211.675171,122.200706 
	C214.781418,124.044792 217.464218,125.637489 220.270340,127.407974 
	C221.027466,128.154694 221.661301,128.723633 222.529694,129.612213 
	C229.387390,136.423935 236.010529,142.915970 242.633667,149.408020 
	C246.628387,155.649551 251.618790,161.488205 254.350983,168.240585 
	C257.367096,175.694672 259.485504,183.625336 259.140076,192.131104 
	C258.462311,208.820114 252.230133,223.178574 242.276428,236.129730 
	C238.094604,241.570862 233.303604,246.543793 228.589615,251.959213 
	C231.760864,261.624237 255.224213,281.256622 265.452026,283.176666 
	C262.316010,278.549805 259.397461,274.344025 256.586731,270.067352 
	C254.010086,266.146790 251.164719,262.337036 249.125443,258.144012 
	C245.780075,251.265442 250.842148,243.821991 258.573975,242.920975 
	C266.817352,241.960327 275.003448,240.458862 283.180084,239.000122 
	C286.468201,238.413498 289.018341,233.395218 287.717285,230.432770 
	C283.889832,221.718140 280.038483,213.013107 276.091309,204.352264 
	C273.152679,197.904327 277.960266,189.914505 285.009918,190.039612 
	C294.268585,190.203888 303.524353,190.605591 312.776764,191.010559 
	C316.287445,191.164230 319.642303,187.952087 318.913422,184.350510 
	C317.110504,175.441956 315.232880,166.535004 312.927979,157.747360 
	C311.795319,153.429092 311.942841,149.900558 314.995117,146.434189 
	C318.320892,142.657211 322.412598,142.344437 326.755463,143.389938 
	C334.479004,145.249313 342.138580,147.374390 349.824432,149.390167 
	C354.908752,150.723648 358.236145,148.031235 358.014526,142.862671 
	C357.638763,134.100311 357.139984,125.336327 357.075317,116.570206 
	C357.038879,111.636047 358.440094,106.887672 363.805420,105.179970 
	C366.063690,104.461189 369.074005,104.278999 371.166107,105.184517 
	C379.651978,108.857376 387.918915,113.037239 396.255981,117.052109 
	C399.351562,118.542824 404.038177,116.272873 404.747467,112.347229 
	C406.083588,104.952469 406.762268,97.439476 408.076416,90.039940 
	C408.720428,86.413628 409.720001,82.698685 411.381378,79.443794 
	C413.396240,75.496407 419.344818,74.160690 423.229065,76.792725 
	C430.653046,81.823326 437.719666,87.377769 445.055969,92.542366 
	C451.230774,96.889259 454.560547,95.661400 457.001038,88.489601 
	C459.706482,80.539253 462.030121,72.426071 465.278046,64.702583 
	C468.452850,57.152985 476.397339,54.404106 483.985657,63.040764 
	C489.419128,69.224831 494.770905,75.480598 500.195648,81.672386 
	C502.494781,84.296585 508.272186,83.671974 510.096191,80.676743 
	C515.017639,72.595139 519.905518,64.492599 524.887390,56.448338 
	C528.555542,50.525352 537.441711,50.396435 541.127502,56.497032 
	C546.001648,64.564720 550.381042,72.954254 555.664429,80.736069 
	C557.026794,82.742653 560.976013,82.992912 563.041382,83.783691 
	C570.959229,75.406288 578.061768,67.459526 585.661072,60.020241 
	C589.919128,55.851826 597.114502,57.486988 599.451965,63.101501 
	C602.997681,71.618179 605.969360,80.378944 609.034912,89.088783 
	C611.422119,95.871239 615.677063,96.859604 621.274841,92.340050 
	C627.882507,87.005096 634.695862,81.878716 641.754150,77.161827 
	C648.170715,72.873810 656.022156,77.345200 657.044556,85.181580 
	C658.162109,93.747849 659.483154,102.297127 661.049683,110.792183 
	C662.263428,117.374161 666.053528,118.793327 671.765320,115.844337 
	C679.212097,111.999519 686.939514,108.702545 694.452087,104.979973 
	C702.349060,101.066994 709.835083,110.284172 709.035278,117.844666 
	C708.481018,123.083885 708.377319,128.369370 707.979431,133.627151 
	C707.795044,136.064072 707.507751,138.506271 707.060425,140.907593 
	C705.990540,146.651291 710.470276,150.902557 716.100647,149.451523 
	C723.342590,147.585175 730.720764,146.153168 737.822449,143.859528 
	C747.830872,140.627060 754.877136,145.870224 752.880005,157.793991 
	C751.484497,166.125839 749.523621,174.366364 747.697144,182.621552 
	C746.354858,188.688400 749.236633,191.049332 755.165649,190.553131 
	C764.418457,189.778732 773.789856,189.790710 783.071411,190.257080 
	C787.737732,190.491547 792.767273,199.159454 790.088379,204.283325 
	C785.643188,212.785660 782.037292,221.727875 778.108337,230.498444 
	C776.754211,233.521286 779.128967,238.361832 782.515381,238.970505 
	C790.688660,240.439575 798.869141,241.991257 807.113647,242.905975 
	C814.615112,243.738251 821.200867,252.477249 816.390869,259.244019 
	C810.919373,266.941406 806.004944,275.034027 800.558105,282.750000 
	C798.212708,286.072327 798.745483,288.141022 801.832642,290.417236 
	C814.195496,299.532532 826.456604,308.785583 838.786987,317.945160 
	C843.837646,321.697021 849.366699,324.916534 853.918945,329.187439 
	C856.812744,331.902313 858.852600,335.532379 857.309082,340.573944 
	C854.535339,349.633759 849.256775,357.135162 844.021118,364.692291 
	C828.044373,387.753174 811.810486,410.636078 795.871338,433.722717 
	C789.393494,443.105347 783.461853,452.863800 777.184082,462.386871 
	C775.516235,464.916901 773.487244,467.208862 771.624023,469.610107 
	C770.929077,469.295654 770.234070,468.981171 769.539124,468.666687 
	C770.583435,462.354431 770.790833,455.753601 772.846924,449.790222 
	C777.068481,437.546509 782.292786,425.649231 787.080688,413.599976 
	C791.746216,401.859009 796.608154,390.189087 800.952576,378.329987 
	C803.892029,370.305969 806.319824,362.070465 808.499268,353.803711 
	C809.402527,350.377289 810.737000,346.137909 805.354431,343.683044 
	C803.747742,342.278931 802.708191,340.970886 801.360657,340.204468 
	C790.887756,334.248138 779.415527,334.488190 767.937378,335.178741 
	C766.714111,335.252350 764.998352,336.414673 764.487244,337.522339 
	C761.514465,343.964935 758.833679,350.542236 756.054260,357.074036 
M595.016785,260.327637 
	C591.600220,262.358612 588.183594,264.389587 584.063110,267.102905 
	C583.136963,267.794861 582.086975,268.369385 581.303345,269.196350 
	C569.417969,281.738617 567.740906,307.021362 577.830627,320.984680 
	C588.766663,336.119202 600.647278,339.289581 617.760376,331.550110 
	C620.482178,330.319153 623.093567,328.829407 625.698792,327.357910 
	C633.207764,323.116638 637.223511,316.531036 638.392883,308.105316 
	C640.055420,296.125885 636.931519,284.975586 632.249451,274.164825 
	C626.418396,260.701324 609.182068,254.123077 595.016785,260.327637 
M476.439758,260.431458 
	C468.247070,261.272430 464.216705,265.485504 461.218872,276.927216 
	C448.793396,301.038574 453.283783,325.118744 481.849030,335.699371 
	C494.803223,340.497650 513.223694,333.269501 519.791504,320.139404 
	C526.522644,306.682770 526.433228,292.665802 520.774963,278.998535 
	C513.390686,261.162018 495.346283,253.692123 476.439758,260.431458 
M265.870758,285.162354 
	C266.197449,285.053223 266.524170,284.944122 266.850861,284.835022 
	C266.444031,284.720978 266.037201,284.606934 265.870758,285.162354 
z"/>
<path fill="#FACBA8" opacity="1.000000" stroke="none" 
	d="
M220.147034,127.230186 
	C217.464218,125.637489 214.781418,124.044792 211.675171,122.200706 
	C211.503845,123.586143 211.333328,124.794174 211.207962,126.006866 
	C210.512695,132.732605 209.378738,139.450165 209.238800,146.188034 
	C208.987701,158.278534 209.336273,170.381485 208.810944,182.840378 
	C203.772446,184.177460 199.357254,185.153397 194.942062,186.129333 
	C192.661957,186.058807 190.381836,185.988297 187.496246,185.563629 
	C181.259781,183.791183 175.628830,182.372910 169.997864,180.954636 
	C169.997864,180.954636 169.998444,181.003647 169.813858,180.708282 
	C167.375366,179.586807 165.121445,178.760696 162.867538,177.934601 
	C158.489716,174.312485 154.111877,170.690384 149.428116,166.919617 
	C147.424973,163.970306 145.571381,161.251556 144.055023,158.356171 
	C130.441681,132.362518 127.964951,105.702988 138.857391,78.032059 
	C145.187592,61.950932 155.009399,48.906193 168.955124,38.578529 
	C183.241104,27.998898 208.259811,33.851181 216.059326,44.688377 
	C213.484238,48.598927 210.895691,51.808884 207.915787,55.010971 
	C203.639130,57.687531 199.575989,58.349964 194.882385,56.146362 
	C193.974091,57.123779 193.438522,58.037251 192.940735,58.973724 
	C192.978500,58.996731 192.937164,58.918549 192.582306,58.784241 
	C192.126663,59.079144 192.025864,59.508350 191.964615,59.964104 
	C192.004166,59.990646 191.933121,59.925488 191.587982,59.808773 
	C190.134933,61.447632 189.027039,63.203209 187.957184,64.975983 
	C187.995239,64.993179 187.940155,64.930420 187.566849,64.878136 
	C186.765427,65.872818 186.337311,66.919785 185.947113,67.976402 
	C185.985016,67.986053 185.945236,67.918686 185.592239,67.778931 
	C183.115372,70.521255 180.587570,72.254395 176.686844,72.283646 
	C174.732346,72.298309 172.790527,74.006195 170.842972,74.948288 
	C171.878250,76.986977 172.913544,79.025658 173.970261,81.033470 
	C173.991699,81.002594 173.922531,81.032036 173.814423,81.383698 
	C174.790909,83.510460 175.875504,85.285553 176.976685,87.032150 
	C176.993286,87.003639 176.927948,87.012749 176.887329,87.351204 
	C177.227966,88.164650 177.609207,88.639641 178.150238,89.411964 
	C177.156464,93.523239 176.002884,97.337189 174.795242,101.329865 
	C180.419754,101.741180 185.934937,101.804306 188.375412,108.160851 
	C188.833176,109.353149 190.545380,110.063828 191.711411,111.405792 
	C192.303146,112.297897 193.205444,113.298134 193.370926,113.188301 
	C197.366699,110.536194 201.283752,107.765518 205.535797,105.212204 
	C208.608414,104.837379 211.360214,104.266594 213.111526,103.903336 
	C214.538345,107.514778 214.895248,110.994766 216.812561,112.545380 
	C218.724030,114.091301 222.200058,113.702682 225.859360,114.305420 
	C225.705414,111.982918 225.583984,110.151100 225.675674,108.073502 
	C225.953293,107.620667 226.017822,107.413620 226.322510,107.278397 
	C226.712158,107.424866 226.861664,107.499496 227.105194,107.814209 
	C228.095596,108.342674 228.991974,108.631058 229.888367,108.919449 
	C230.313904,107.407295 230.739441,105.895134 231.185043,104.311722 
	C232.580154,103.957275 234.141586,103.440186 235.744705,103.175087 
	C241.281143,102.259537 243.048325,99.140511 240.992798,93.908737 
	C240.246338,92.008865 239.690887,90.033966 239.048309,88.093292 
	C239.460770,86.895683 239.873230,85.698067 240.285675,84.500458 
	C247.644974,105.725769 250.495697,126.994057 242.805450,149.027100 
	C236.010529,142.915970 229.387390,136.423935 222.921326,129.580643 
	C226.539169,129.917114 229.999954,130.604813 234.700974,131.538971 
	C233.463669,129.929520 232.711258,127.959869 231.709244,127.823433 
	C227.898880,127.304626 224.007889,127.378098 220.147034,127.230186 
M163.600800,129.738190 
	C168.221100,130.109726 172.841385,130.481277 178.507355,130.936920 
	C177.347290,129.748077 176.494965,128.182800 175.221817,127.677155 
	C162.839325,122.759293 150.601242,131.387039 150.891739,144.648819 
	C150.998703,149.532120 153.156555,153.069000 157.770065,154.562393 
	C163.079620,156.281067 168.303223,155.497406 173.134644,152.668152 
	C173.586838,152.403366 173.750275,151.519806 173.901840,150.888504 
	C174.662949,147.718155 175.375549,144.536163 176.228165,140.822601 
	C172.112640,141.663300 167.986313,139.149994 163.882385,143.435501 
	C167.294662,143.789917 169.526413,144.021713 172.824005,144.364212 
	C171.343246,147.208786 170.725876,150.646957 168.817764,151.664352 
	C161.195770,155.728378 154.150497,150.720963 154.798187,142.169968 
	C155.219116,136.612701 157.499420,132.276413 163.600800,129.738190 
M188.059586,133.712692 
	C190.406296,132.244247 192.659988,129.774704 195.121887,129.545944 
	C198.665054,129.216690 202.359665,130.517242 207.491348,131.372452 
	C205.796753,129.615982 204.872955,127.834114 203.511703,127.388474 
	C197.212463,125.326187 191.211624,126.188095 186.435425,131.024628 
	C181.494278,136.028244 179.686127,142.435989 182.104111,148.933868 
	C183.087387,151.576248 186.931107,154.555817 189.701996,154.801361 
	C193.810547,155.165451 198.134613,153.279434 202.324875,152.189514 
	C202.654984,152.103653 202.656799,150.755600 202.885864,149.625824 
	C200.504547,150.563705 198.600723,151.488617 196.597397,152.071503 
	C188.948578,154.296951 183.970581,150.211731 184.971268,142.287872 
	C185.314392,139.570816 186.702866,136.985764 188.059586,133.712692 
z"/>
<path fill="#A62B00" opacity="1.000000" stroke="none" 
	d="
M273.129578,342.379028 
	C275.735748,336.108887 282.767944,332.928986 288.436218,335.313965 
	C321.133972,349.071899 354.869049,359.685150 389.492065,367.155975 
	C413.103668,372.250854 436.981842,376.219788 460.854919,379.965027 
	C489.112152,384.398071 517.637207,385.575439 546.708252,385.123535 
	C545.169922,387.804962 543.306396,390.586609 541.058289,393.011749 
	C540.091858,394.054352 538.333435,394.896729 536.924744,394.912109 
	C523.938599,395.054108 510.925690,395.500366 497.968750,394.868988 
	C481.014374,394.042786 464.052124,392.770416 447.190277,390.841827 
	C433.033173,389.222595 418.981689,386.573120 404.944946,384.039093 
	C391.406372,381.595062 377.684082,379.616730 364.521637,375.787079 
	C349.673035,371.466858 335.334015,365.375397 320.830017,359.904083 
	C317.065338,358.483917 313.512177,356.503021 309.277191,354.503662 
	C309.277191,356.327179 308.881256,357.631226 309.336731,358.476532 
	C315.843628,370.551971 322.519287,382.536346 329.043915,394.602386 
	C334.971466,405.564209 340.545258,416.686218 343.030060,430.152618 
	C341.405518,429.481659 339.895111,429.339539 339.242767,428.516968 
	C327.289368,413.444031 315.494141,398.245728 303.545746,383.168793 
	C296.303284,374.029968 288.700928,365.173279 281.574432,355.947144 
	C278.404297,351.842987 276.009247,347.140106 273.129578,342.379028 
z"/>
<path fill="#A52B00" opacity="1.000000" stroke="none" 
	d="
M756.414551,357.027222 
	C758.833679,350.542236 761.514465,343.964935 764.487244,337.522339 
	C764.998352,336.414673 766.714111,335.252350 767.937378,335.178741 
	C779.415527,334.488190 790.887756,334.248138 801.360657,340.204468 
	C802.708191,340.970886 803.747742,342.278931 804.968567,343.693115 
	C801.100342,350.423370 797.409485,356.941833 793.242065,363.139862 
	C784.392029,376.302002 775.207458,389.238983 766.330017,402.383057 
	C761.005737,410.266327 756.058350,418.403381 750.810120,426.339508 
	C749.681885,428.045563 747.987793,429.377411 746.554321,430.881622 
	C746.132385,430.700195 745.710510,430.518738 745.288635,430.337280 
	C745.910156,426.811462 745.899597,423.017609 747.261414,419.805664 
	C753.573425,404.918518 760.373352,390.239014 766.776184,375.389221 
	C769.807556,368.358582 772.325073,361.107025 775.105774,353.967346 
	C776.289124,350.928894 777.550171,347.920685 778.934082,344.508942 
	C771.352661,348.775848 764.063721,352.878143 756.414551,357.027222 
z"/>
<path fill="#A19177" opacity="1.000000" stroke="none" 
	d="
M238.685486,87.916321 
	C239.690887,90.033966 240.246338,92.008865 240.992798,93.908737 
	C243.048325,99.140511 241.281143,102.259537 235.744705,103.175087 
	C234.141586,103.440186 232.580154,103.957275 231.185043,104.311722 
	C230.739441,105.895134 230.313904,107.407295 229.888367,108.919449 
	C228.991974,108.631058 228.095596,108.342674 227.101257,107.425751 
	C224.989243,104.687714 222.975204,102.578217 221.089478,100.348679 
	C221.475616,99.989792 221.733444,99.750946 222.294067,99.270729 
	C220.977570,95.842873 219.358917,92.656067 217.738770,89.470009 
	C216.466705,86.968475 215.192841,84.467857 214.154724,81.691437 
	C215.986694,80.873573 217.583740,80.331108 219.180771,79.788651 
	C219.146591,79.518753 219.112396,79.248856 219.078217,78.978958 
	C216.341095,78.978958 213.603958,78.978958 210.533524,78.978958 
	C211.207703,77.628944 211.620743,76.801872 212.025330,75.996696 
	C212.016907,76.018593 211.973099,76.035431 212.309662,75.925850 
	C213.757690,74.018082 214.869141,72.219887 216.218048,70.156754 
	C220.976227,68.609703 225.496948,67.327591 230.091858,66.396072 
	C231.108826,66.459412 232.051636,66.172157 232.984375,65.940521 
	C232.974335,65.996132 232.862961,65.976967 232.862961,65.976967 
	C235.552979,65.700562 236.329163,70.410614 240.069092,68.669670 
	C241.554214,69.476578 242.854172,69.984779 243.569077,70.933739 
	C244.967987,72.790581 246.040421,74.893379 246.894455,76.888283 
	C245.231735,76.029137 243.922531,75.176071 242.613327,74.323013 
	C242.354019,74.856277 242.094696,75.389534 241.835388,75.922798 
	C240.614563,77.648331 239.393738,79.373863 238.172913,81.099396 
	C237.776733,80.923767 237.380539,80.748138 236.984344,80.572517 
	C237.430466,82.961456 237.876572,85.350403 238.685486,87.916321 
M234.505829,80.072510 
	C234.505829,78.470360 234.505829,76.868217 234.505829,75.296089 
	C231.829239,77.093277 229.922943,77.922997 228.687790,79.338402 
	C227.608704,80.574944 227.285080,82.470757 226.627701,84.075310 
	C228.315857,83.974419 230.137726,84.225769 231.646774,83.653015 
	C232.713455,83.248161 233.356430,81.727005 234.505829,80.072510 
M235.596695,97.927696 
	C236.047379,97.144882 236.498047,96.362068 236.995895,95.497322 
	C234.398392,94.976524 232.187149,94.366341 229.939301,94.165100 
	C229.047836,94.085297 227.304352,94.873947 227.280884,95.334999 
	C227.203995,96.845467 227.559799,98.461937 228.148132,99.871155 
	C228.324905,100.294548 229.887558,100.464447 230.669373,100.240623 
	C232.169418,99.811180 233.565033,99.016930 235.596695,97.927696 
z"/>
<path fill="#A62C00" opacity="1.000000" stroke="none" 
	d="
M656.039429,373.387939 
	C667.640808,370.215759 679.438110,367.547638 691.110474,364.414001 
	C700.549927,361.879791 709.838867,358.785095 719.597290,355.969482 
	C720.000000,356.000000 720.000000,355.998779 720.000000,355.998779 
	C712.111145,364.637909 704.568481,373.678558 693.280273,378.882019 
	C685.974365,380.507019 678.972168,381.906799 672.023865,383.536652 
	C668.181641,384.437927 665.001343,384.265747 662.440735,380.681915 
	C660.633301,378.152222 658.287048,376.007446 656.039429,373.387939 
z"/>
<path fill="#EAEAEA" opacity="1.000000" stroke="none" 
	d="
M230.017670,66.045486 
	C225.496948,67.327591 220.976227,68.609703 215.783035,70.248619 
	C213.045578,70.723900 210.980591,70.842377 208.647980,70.777969 
	C206.942657,68.968002 205.504929,67.340935 204.254959,65.449753 
	C207.199692,62.355019 209.031250,59.172634 208.307159,55.018841 
	C210.895691,51.808884 213.484238,48.598927 216.044830,45.076977 
	C225.200287,43.024372 225.200287,43.024372 231.269791,53.931980 
	C228.106461,52.836594 225.397034,51.898392 221.921570,50.868042 
	C217.760498,50.973103 216.959702,53.195412 216.800308,56.380882 
	C215.455124,58.845676 214.321777,61.013351 212.535324,64.430191 
	C217.545258,64.082375 220.723724,63.861710 223.902176,63.641041 
	C225.645386,63.314335 227.450653,62.557266 229.112213,62.796829 
	C230.446045,62.989143 231.605682,64.389572 232.852783,65.615433 
	C232.862961,65.976967 232.974335,65.996132 232.612122,65.914482 
	C231.505844,65.903717 230.761749,65.974594 230.017670,66.045486 
z"/>
<path fill="#E4E4E4" opacity="1.000000" stroke="none" 
	d="
M247.247986,76.894363 
	C246.040421,74.893379 244.967987,72.790581 243.569077,70.933739 
	C242.854172,69.984779 241.554214,69.476578 240.334351,68.510422 
	C241.939011,68.596161 243.774429,68.790298 245.504929,69.324364 
	C247.527344,69.948517 249.458237,70.869186 251.428833,71.661209 
	C252.349930,69.278404 254.034897,66.848221 253.891220,64.531448 
	C253.811447,63.245167 250.702301,62.111000 248.907837,60.989391 
	C248.394455,60.668522 247.703873,60.631176 247.094528,60.463821 
	C247.053299,60.009087 247.012054,59.554356 246.970810,59.099621 
	C250.527924,58.703690 254.097366,58.003429 257.632629,58.146622 
	C258.420624,58.178535 260.073853,61.522655 259.642517,62.748486 
	C257.692810,68.289444 255.137955,73.617462 252.154236,78.997604 
	C250.087601,78.280128 248.667801,77.587250 247.247986,76.894363 
z"/>
<path fill="#E08E04" opacity="1.000000" stroke="none" 
	d="
M224.039276,63.236607 
	C220.723724,63.861710 217.545258,64.082375 212.535324,64.430191 
	C214.321777,61.013351 215.455124,58.845676 217.132172,56.482952 
	C219.873016,57.158180 222.070145,58.028458 224.267273,58.898735 
	C224.236969,60.209877 224.206665,61.521023 224.039276,63.236607 
z"/>
<path fill="#91836D" opacity="1.000000" stroke="none" 
	d="
M246.894455,76.888283 
	C248.667801,77.587250 250.087601,78.280128 251.828064,79.104599 
	C252.436905,80.667160 252.725113,82.098137 253.013779,83.529030 
	C244.562424,82.600174 243.513794,81.859261 242.213837,76.044052 
	C242.094696,75.389534 242.354019,74.856277 242.613327,74.323013 
	C243.922531,75.176071 245.231735,76.029137 246.894455,76.888283 
z"/>
<path fill="#D4AF93" opacity="1.000000" stroke="none" 
	d="
M224.748810,58.942055 
	C222.070145,58.028458 219.873016,57.158180 217.344009,56.185833 
	C216.959702,53.195412 217.760498,50.973103 221.530136,50.876007 
	C223.368881,53.064938 224.886856,55.120449 226.226746,57.286137 
	C226.388229,57.547142 225.585922,58.404446 224.748810,58.942055 
z"/>
<path fill="#EAEAEA" opacity="1.000000" stroke="none" 
	d="
M232.493500,54.494194 
	C232.512527,54.494850 232.474487,54.493538 232.493500,54.494194 
z"/>
<path fill="#040201" opacity="1.000000" stroke="none" 
	d="
M477.013916,260.173859 
	C495.346283,253.692123 513.390686,261.162018 520.774963,278.998535 
	C526.433228,292.665802 526.522644,306.682770 519.791504,320.139404 
	C513.223694,333.269501 494.803223,340.497650 481.849030,335.699371 
	C453.283783,325.118744 448.793396,301.038574 461.300262,277.063965 
	C460.918518,283.851624 461.749756,290.181519 466.131561,295.564484 
	C471.001221,301.546783 478.096344,302.338074 483.666107,297.542847 
	C494.976776,287.805115 492.172333,263.187958 477.013916,260.173859 
z"/>
<path fill="#050201" opacity="1.000000" stroke="none" 
	d="
M595.669678,260.052002 
	C609.182068,254.123077 626.418396,260.701324 632.249451,274.164825 
	C636.931519,284.975586 640.055420,296.125885 638.392883,308.105316 
	C637.223511,316.531036 633.207764,323.116638 625.698792,327.357910 
	C623.093567,328.829407 620.482178,330.319153 617.760376,331.550110 
	C600.647278,339.289581 588.766663,336.119202 577.830627,320.984680 
	C567.740906,307.021362 569.417969,281.738617 581.303345,269.196350 
	C582.086975,268.369385 583.136963,267.794861 584.135681,267.250305 
	C579.848999,276.051605 579.590454,284.700836 584.862183,293.005524 
	C589.311340,300.014313 597.094421,301.490204 602.733398,296.417847 
	C609.324707,290.488861 610.509705,282.696625 608.929138,274.441803 
	C607.513733,267.049438 603.589233,261.621368 595.669678,260.052002 
z"/>
<path fill="#F9F8F8" opacity="1.000000" stroke="none" 
	d="
M476.726837,260.302673 
	C492.172333,263.187958 494.976776,287.805115 483.666107,297.542847 
	C478.096344,302.338074 471.001221,301.546783 466.131561,295.564484 
	C461.749756,290.181519 460.918518,283.851624 461.408386,276.658508 
	C464.216705,265.485504 468.247070,261.272430 476.726837,260.302673 
z"/>
<path fill="#F9F9F9" opacity="1.000000" stroke="none" 
	d="
M595.343262,260.189819 
	C603.589233,261.621368 607.513733,267.049438 608.929138,274.441803 
	C610.509705,282.696625 609.324707,290.488861 602.733398,296.417847 
	C597.094421,301.490204 589.311340,300.014313 584.862183,293.005524 
	C579.590454,284.700836 579.848999,276.051605 584.487610,266.909119 
	C588.183594,264.389587 591.600220,262.358612 595.343262,260.189819 
z"/>
<path fill="#040201" opacity="1.000000" stroke="none" 
	d="
M195.109711,186.423187 
	C199.357254,185.153397 203.772446,184.177460 208.569244,183.192520 
	C208.480194,189.543167 208.009521,195.902817 207.441711,203.575058 
	C203.062195,197.505692 199.169769,192.111374 195.109711,186.423187 
z"/>
<path fill="#211A15" opacity="1.000000" stroke="none" 
	d="
M220.270340,127.407974 
	C224.007889,127.378098 227.898880,127.304626 231.709244,127.823433 
	C232.711258,127.959869 233.463669,129.929520 234.700974,131.538971 
	C229.999954,130.604813 226.539169,129.917114 222.686768,129.260986 
	C221.661301,128.723633 221.027466,128.154694 220.270340,127.407974 
z"/>
<path fill="#864930" opacity="1.000000" stroke="none" 
	d="
M170.114151,181.299240 
	C175.628830,182.372910 181.259781,183.791183 187.070740,185.548676 
	C181.577316,184.473190 175.903870,183.058517 170.114151,181.299240 
z"/>
<path fill="#864930" opacity="1.000000" stroke="none" 
	d="
M163.039261,178.254364 
	C165.121445,178.760696 167.375366,179.586807 169.834839,180.695618 
	C167.763916,180.176910 165.487457,179.375519 163.039261,178.254364 
z"/>
<path fill="#000000" opacity="1.000000" stroke="none" 
	d="
M265.750549,284.827637 
	C266.037201,284.606934 266.444031,284.720978 266.850861,284.835022 
	C266.524170,284.944122 266.197449,285.053223 265.750549,284.827637 
z"/>
<path fill="#A62C00" opacity="1.000000" stroke="none" 
	d="
M720.000000,356.000610 
	C720.095520,355.965851 720.191101,355.930450 720.143311,355.946899 
	C720.000000,355.998779 720.000000,356.000000 720.000000,356.000610 
z"/>
<path fill="#A59479" opacity="1.000000" stroke="none" 
	d="
M204.067200,65.713867 
	C205.504929,67.340935 206.942657,68.968002 208.813965,71.131592 
	C212.062256,71.934280 212.459671,73.709015 211.973099,76.035431 
	C211.973099,76.035431 212.016907,76.018593 211.667053,75.851677 
	C209.553467,76.616081 207.789734,77.547409 205.028107,79.005646 
	C208.232834,79.927773 210.106552,80.466919 211.990204,81.408340 
	C212.923965,84.323997 213.507202,87.039299 214.849976,89.304321 
	C216.961594,92.866272 219.584717,96.124985 221.991257,99.512100 
	C221.733444,99.750946 221.475616,99.989792 221.090607,100.754448 
	C219.430054,102.051926 217.481720,103.842621 216.436066,103.416779 
	C212.175049,101.681419 208.725632,103.085060 205.056732,104.797882 
	C203.671814,103.532372 202.463058,102.624802 201.087891,101.495499 
	C200.440186,101.007576 199.958862,100.741379 199.351196,100.283966 
	C199.024033,99.850441 198.781555,99.661621 198.381134,99.185814 
	C196.850006,95.586243 195.435165,92.327148 194.020325,89.068054 
	C193.444214,89.338135 192.868103,89.608223 192.291992,89.878311 
	C194.120529,93.328568 195.949066,96.778824 197.881622,100.447067 
	C198.175049,100.939087 198.424591,101.137474 198.887177,101.490662 
	C199.497375,102.003311 199.954681,102.285507 200.581741,102.858459 
	C201.502625,104.097282 202.253723,105.045364 203.587357,106.728699 
	C199.186386,108.306007 195.432541,109.651382 191.678696,110.996750 
	C190.545380,110.063828 188.833176,109.353149 188.375412,108.160851 
	C185.934937,101.804306 180.419754,101.741180 174.795242,101.329865 
	C176.002884,97.337189 177.156464,93.523239 178.190704,89.061195 
	C177.690231,87.946312 177.309097,87.479530 176.927948,87.012749 
	C176.927948,87.012749 176.993286,87.003639 177.074417,86.653831 
	C177.113541,85.264709 177.071548,84.225388 177.350342,83.208420 
	C178.279572,83.718582 178.888046,84.206383 179.550583,84.737541 
	C181.221207,82.410583 180.624680,77.105713 185.487457,80.032097 
	C186.995422,76.995071 188.494354,73.976196 189.999390,70.980705 
	C190.005463,71.004082 189.957581,70.997765 190.292297,70.977722 
	C191.943558,71.030113 193.260086,71.102554 194.583603,71.175377 
	C194.728180,69.815132 194.879852,68.388313 195.024338,66.992691 
	C195.017166,67.023880 194.953674,67.015839 195.252319,67.056870 
	C195.749908,67.069366 195.948837,67.040833 196.556213,67.015472 
	C199.332199,66.583717 201.699692,66.148796 204.067200,65.713867 
z"/>
<path fill="#1C1612" opacity="1.000000" stroke="none" 
	d="
M163.228104,129.857269 
	C157.499420,132.276413 155.219116,136.612701 154.798187,142.169968 
	C154.150497,150.720963 161.195770,155.728378 168.817764,151.664352 
	C170.725876,150.646957 171.343246,147.208786 172.824005,144.364212 
	C169.526413,144.021713 167.294662,143.789917 163.882385,143.435501 
	C167.986313,139.149994 172.112640,141.663300 176.228165,140.822601 
	C175.375549,144.536163 174.662949,147.718155 173.901840,150.888504 
	C173.750275,151.519806 173.586838,152.403366 173.134644,152.668152 
	C168.303223,155.497406 163.079620,156.281067 157.770065,154.562393 
	C153.156555,153.069000 150.998703,149.532120 150.891739,144.648819 
	C150.601242,131.387039 162.839325,122.759293 175.221817,127.677155 
	C176.494965,128.182800 177.347290,129.748077 178.507355,130.936920 
	C172.841385,130.481277 168.221100,130.109726 163.228104,129.857269 
z"/>
<path fill="#E38704" opacity="1.000000" stroke="none" 
	d="
M204.254959,65.449760 
	C201.699692,66.148796 199.332199,66.583717 196.426178,66.776077 
	C195.576324,66.694290 195.264999,66.855064 194.953674,67.015839 
	C194.953674,67.015839 195.017166,67.023880 194.657211,66.909126 
	C192.850693,68.195503 191.404144,69.596642 189.957581,70.997772 
	C189.957581,70.997765 190.005463,71.004082 189.669342,70.799149 
	C184.848831,74.391174 180.364426,78.188141 175.634216,81.852371 
	C174.899796,81.490440 174.411163,81.261238 173.922531,81.032036 
	C173.922531,81.032036 173.991699,81.002594 174.048538,80.642059 
	C171.994385,75.684258 173.482483,73.801712 178.514832,73.677299 
	C182.085129,73.589035 185.129242,71.976418 185.945236,67.918686 
	C185.945236,67.918686 185.985016,67.986053 186.277618,67.901009 
	C187.026855,66.854111 187.483505,65.892265 187.940155,64.930420 
	C187.940155,64.930420 187.995239,64.993179 188.301239,64.944649 
	C189.715866,63.239239 190.824493,61.582359 191.933105,59.925484 
	C191.933121,59.925488 192.004166,59.990646 192.273773,59.987419 
	C192.674652,59.628983 192.805908,59.273766 192.937164,58.918549 
	C192.937164,58.918549 192.978500,58.996731 193.288696,58.960556 
	C194.150955,57.977058 194.703018,57.029732 195.255096,56.082405 
	C199.575989,58.349964 203.639130,57.687531 207.915787,55.010971 
	C209.031250,59.172634 207.199692,62.355019 204.254959,65.449760 
z"/>
<path fill="#211A15" opacity="1.000000" stroke="none" 
	d="
M187.836670,134.026550 
	C186.702866,136.985764 185.314392,139.570816 184.971268,142.287872 
	C183.970581,150.211731 188.948578,154.296951 196.597397,152.071503 
	C198.600723,151.488617 200.504547,150.563705 202.885864,149.625824 
	C202.656799,150.755600 202.654984,152.103653 202.324875,152.189514 
	C198.134613,153.279434 193.810547,155.165451 189.701996,154.801361 
	C186.931107,154.555817 183.087387,151.576248 182.104111,148.933868 
	C179.686127,142.435989 181.494278,136.028244 186.435425,131.024628 
	C191.211624,126.188095 197.212463,125.326187 203.511703,127.388474 
	C204.872955,127.834114 205.796753,129.615982 207.491348,131.372452 
	C202.359665,130.517242 198.665054,129.216690 195.121887,129.545944 
	C192.659988,129.774704 190.406296,132.244247 187.836670,134.026550 
z"/>
<path fill="#1A1511" opacity="1.000000" stroke="none" 
	d="
M205.232864,105.155823 
	C208.725632,103.085060 212.175049,101.681419 216.436066,103.416779 
	C217.481720,103.842621 219.430054,102.051926 220.962280,100.874496 
	C222.975204,102.578217 224.989243,104.687714 227.007233,107.185669 
	C226.861664,107.499496 226.712158,107.424866 226.044128,107.115829 
	C225.504578,107.360710 225.483566,107.839996 225.462555,108.319283 
	C225.583984,110.151100 225.705414,111.982918 225.859360,114.305420 
	C222.200058,113.702682 218.724030,114.091301 216.812561,112.545380 
	C214.895248,110.994766 214.538345,107.514778 213.111526,103.903336 
	C211.360214,104.266594 208.608414,104.837379 205.529175,105.237701 
	C205.201752,105.067245 205.232864,105.155823 205.232864,105.155823 
z"/>
<path fill="#593D20" opacity="1.000000" stroke="none" 
	d="
M185.592239,67.778931 
	C185.129242,71.976418 182.085129,73.589035 178.514832,73.677299 
	C173.482483,73.801712 171.994385,75.684258 174.027100,80.672928 
	C172.913544,79.025658 171.878250,76.986977 170.842972,74.948288 
	C172.790527,74.006195 174.732346,72.298309 176.686844,72.283646 
	C180.587570,72.254395 183.115372,70.521255 185.592239,67.778931 
z"/>
<path fill="#443B2F" opacity="1.000000" stroke="none" 
	d="
M205.056732,104.797882 
	C205.232864,105.155823 205.201752,105.067245 205.208374,105.041748 
	C201.283752,107.765518 197.366699,110.536194 193.370926,113.188301 
	C193.205444,113.298134 192.303146,112.297897 191.711411,111.405792 
	C195.432541,109.651382 199.186386,108.306007 203.587357,106.728699 
	C202.253723,105.045364 201.502625,104.097282 200.803833,102.653763 
	C200.988861,102.011292 201.121582,101.864258 201.254288,101.717232 
	C202.463058,102.624802 203.671814,103.532372 205.056732,104.797882 
z"/>
<path fill="#593D20" opacity="1.000000" stroke="none" 
	d="
M173.814423,81.383698 
	C174.411163,81.261238 174.899796,81.490440 175.891998,81.981003 
	C176.606918,82.556923 176.818237,82.871498 177.029556,83.186073 
	C177.071548,84.225388 177.113541,85.264709 177.057816,86.682343 
	C175.875504,85.285553 174.790909,83.510460 173.814423,81.383698 
z"/>
<path fill="#593D20" opacity="1.000000" stroke="none" 
	d="
M191.587967,59.808769 
	C190.824493,61.582359 189.715866,63.239239 188.263199,64.927452 
	C189.027039,63.203209 190.134933,61.447632 191.587967,59.808769 
z"/>
<path fill="#593D20" opacity="1.000000" stroke="none" 
	d="
M187.566849,64.878136 
	C187.483505,65.892265 187.026855,66.854111 186.239700,67.891357 
	C186.337311,66.919785 186.765427,65.872818 187.566849,64.878136 
z"/>
<path fill="#593D20" opacity="1.000000" stroke="none" 
	d="
M194.882370,56.146355 
	C194.703018,57.029732 194.150955,57.977058 193.250916,58.937553 
	C193.438522,58.037251 193.974091,57.123779 194.882370,56.146355 
z"/>
<path fill="#593D20" opacity="1.000000" stroke="none" 
	d="
M176.887329,87.351204 
	C177.309097,87.479530 177.690231,87.946312 178.030914,88.763870 
	C177.609207,88.639641 177.227966,88.164650 176.887329,87.351204 
z"/>
<path fill="#A19177" opacity="1.000000" stroke="none" 
	d="
M225.675659,108.073502 
	C225.483566,107.839996 225.504578,107.360710 225.803986,107.043991 
	C226.017822,107.413620 225.953293,107.620667 225.675659,108.073502 
z"/>
<path fill="#593D20" opacity="1.000000" stroke="none" 
	d="
M192.582306,58.784241 
	C192.805908,59.273766 192.674652,59.628983 192.234222,59.960876 
	C192.025864,59.508350 192.126663,59.079144 192.582306,58.784241 
z"/>
<path fill="#645F57" opacity="1.000000" stroke="none" 
	d="
M234.347198,80.388351 
	C233.356430,81.727005 232.713455,83.248161 231.646774,83.653015 
	C230.137726,84.225769 228.315857,83.974419 226.627701,84.075310 
	C227.285080,82.470757 227.608704,80.574944 228.687790,79.338402 
	C229.922943,77.922997 231.829239,77.093277 234.505829,75.296089 
	C234.505829,76.868217 234.505829,78.470360 234.347198,80.388351 
z"/>
<path fill="#645F57" opacity="1.000000" stroke="none" 
	d="
M235.300323,98.150864 
	C233.565033,99.016930 232.169418,99.811180 230.669373,100.240623 
	C229.887558,100.464447 228.324905,100.294548 228.148132,99.871155 
	C227.559799,98.461937 227.203995,96.845467 227.280884,95.334999 
	C227.304352,94.873947 229.047836,94.085297 229.939301,94.165100 
	C232.187149,94.366341 234.398392,94.976524 236.995895,95.497322 
	C236.498047,96.362068 236.047379,97.144882 235.300323,98.150864 
z"/>
<path fill="#443B2F" opacity="1.000000" stroke="none" 
	d="
M222.294067,99.270729 
	C219.584717,96.124985 216.961594,92.866272 214.849976,89.304321 
	C213.507202,87.039299 212.923965,84.323997 212.243408,81.506805 
	C212.964371,81.457619 213.442078,81.712227 213.919769,81.966835 
	C215.192841,84.467857 216.466705,86.968475 217.738770,89.470009 
	C219.358917,92.656067 220.977570,95.842873 222.294067,99.270729 
z"/>
<path fill="#2E2A22" opacity="1.000000" stroke="none" 
	d="
M214.154724,81.691437 
	C213.442078,81.712227 212.964371,81.457619 212.233490,81.104530 
	C210.106552,80.466919 208.232834,79.927773 205.028107,79.005646 
	C207.789734,77.547409 209.553467,76.616081 211.675491,75.829781 
	C211.620743,76.801872 211.207703,77.628944 210.533524,78.978958 
	C213.603958,78.978958 216.341095,78.978958 219.078217,78.978958 
	C219.112396,79.248856 219.146591,79.518753 219.180771,79.788651 
	C217.583740,80.331108 215.986694,80.873573 214.154724,81.691437 
z"/>
<path fill="#2E2A22" opacity="1.000000" stroke="none" 
	d="
M212.309662,75.925850 
	C212.459671,73.709015 212.062256,71.934280 209.081573,71.314484 
	C210.980591,70.842377 213.045578,70.723900 215.545593,70.513565 
	C214.869141,72.219887 213.757690,74.018082 212.309662,75.925850 
z"/>
<path fill="#000000" opacity="1.000000" stroke="none" 
	d="
M230.091858,66.396072 
	C230.761749,65.974594 231.505844,65.903717 232.622177,65.858871 
	C232.051636,66.172157 231.108826,66.459412 230.091858,66.396072 
z"/>
<path fill="#2C2010" opacity="1.000000" stroke="none" 
	d="
M177.350342,83.208420 
	C176.818237,82.871498 176.606918,82.556923 176.137802,82.113724 
	C180.364426,78.188141 184.848831,74.391174 189.663269,70.775772 
	C188.494354,73.976196 186.995422,76.995071 185.487457,80.032097 
	C180.624680,77.105713 181.221207,82.410583 179.550583,84.737541 
	C178.888046,84.206383 178.279572,83.718582 177.350342,83.208420 
z"/>
<path fill="#443B2F" opacity="1.000000" stroke="none" 
	d="
M197.777603,100.229080 
	C195.949066,96.778824 194.120529,93.328568 192.291992,89.878311 
	C192.868103,89.608223 193.444214,89.338135 194.020325,89.068054 
	C195.435165,92.327148 196.850006,95.586243 198.195221,99.358612 
	C198.125626,99.871887 197.777603,100.229080 197.777603,100.229080 
z"/>
<path fill="#2C2010" opacity="1.000000" stroke="none" 
	d="
M190.292313,70.977722 
	C191.404144,69.596642 192.850693,68.195503 194.664383,66.877930 
	C194.879852,68.388313 194.728180,69.815132 194.583603,71.175377 
	C193.260086,71.102554 191.943558,71.030113 190.292313,70.977722 
z"/>
<path fill="#443B2F" opacity="1.000000" stroke="none" 
	d="
M199.477554,100.475182 
	C199.958862,100.741379 200.440186,101.007576 201.087891,101.495499 
	C201.121582,101.864258 200.988861,102.011292 200.634064,102.363007 
	C199.954681,102.285507 199.497375,102.003311 199.079041,101.300140 
	C199.237854,100.744499 199.357697,100.609840 199.477554,100.475182 
z"/>
<path fill="#2C2010" opacity="1.000000" stroke="none" 
	d="
M195.252319,67.056870 
	C195.264999,66.855064 195.576324,66.694290 196.017700,66.772911 
	C195.948837,67.040833 195.749908,67.069366 195.252319,67.056870 
z"/>
<path fill="#443B2F" opacity="1.000000" stroke="none" 
	d="
M198.926147,101.069687 
	C198.424591,101.137474 198.175049,100.939087 197.881622,100.447067 
	C197.777603,100.229080 198.125626,99.871887 198.311523,99.699089 
	C198.781555,99.661621 199.024033,99.850441 199.351196,100.283966 
	C199.357697,100.609840 199.237854,100.744499 198.926147,101.069687 
z"/>
</svg>